<svg xmlns="http://www.w3.org/2000/svg" width="811" height="140" viewBox="0 0 811 140">
  <defs>
    <style>
      .cls-1 {
        fill-rule: evenodd;
      }
    </style>
  </defs>
  <path id="Color_Fill_2" fill="#fff" data-name="Color Fill 2" class="cls-1" d="M215,101V98c6.766-1.889,6.659-8.348,4-15-1.477-3.7-5.925-6.862-8-10-3.942-5.963-4.67-13.423-9-19-1.247-1.606-2.388-1.519-5-2a35.305,35.305,0,0,1-6,9c-0.091,11.923,3.36,19.472,4,31,2.2,1.024,8.595,1.8,10,4-1.766.962-1.68,1.257-4,2-2.8,1.934-24.806,5.251-29,6v-1h1c3.458-4.714,9.132-3.471,10-11-2.754-4.674.376-13.748-1-20-2.6-11.8-1.849-41.091-9-47-2.2-1.628-5.178-1.917-9-2V21c7.6-1.857,12.41-6.177,21-7v2c-4.776,4.219,2.667,34.48,5,40l1-1c8.076-7.7,20.784-29.214,22-43-2.091-1.121-1.832-1.434-5-2-1.18.8-1.681,0.773-4,1V9l1-1c11.72-.689,18.983-6.867,31-8V2c-12.917,3.515-30.751,29.925-33,44,9.158,5.952,18.787,24.482,25,34,3.482,5.334,3.514,11.65,10,14,4.784,2.738,13.093-.721,16,4h-1c-1.276.7-18.209,2.478-21,2-1.453-.249-5.978-1.841-9-1S219.629,100.519,215,101ZM643,44c0.6-5.15-.276-15.9-4-20-2.347-2.586-4.339-1.145-6-5h3c2.111,1.207,2.232.483,5,0-0.023-3.9-1.27-11.955,2-14V6c7.1,10,.274,14.093,4,27,1.125,3.9,4.438,5.684,6,9h-1C650.03,44.281,647.457,44.14,643,44ZM29,11c9.184,0.757,14.335,6.889,24,9v2c-2.909.119-5.71-1.36-9,0-4.565,1.888-13.5,18.821-14,25,9.174,4.019,10.974,11.592,24,12,4.772-7.229,11.353-14.66,12-26-2.325-2.187-6.85-7.971-6-10,1.295-2.468-.429-0.681,2-2,5.429,6.989,14.6,6.786,24,10l-1,1c-2.959,2.395-8.818,2.891-11,6L70,49C62.682,61.47,54.113,75.93,52,93c3.543,2.224,10.192,7.116,12,11H60c-5.308-4.752-25.375-10.98-28-16,5.1,0.084,9.253-.71,12-3,3.807-4.752,8.342-13.981,9-21-7.029-4.086-15.406-7.423-21-13l-7,2c-3.234,7.183-7.629,13.488-8,23a16.3,16.3,0,0,1,6,9H22C18.869,82.419,1.009,69.966,0,68H3c3.175,2.6,4.861,2.3,9,2,5.575-17.949,23.248-28.492,24-51Zm707,4c8.836,2.456,14.459,12.394,23,15l14-2c13.394-2.027,26,.994,38-2v3c-4.792,6.429-2.845,28.139-7,37h-2V64c4.719-6.193.2-30.094-6-33H784c-1.478,2.756-2.685,1.837-4,5-3.008,4.613-.573,11.34-2,18-3.191,14.891-5.025,32.518-2,48,3.51,1.019,13.264,4.848,15,8h-5c-1.978-1.227-4.939-.193-8-1-12.274-3.237-13.019-5.276-28-5v-2l1-1a25.76,25.76,0,0,0,10-2c5.712-14.244,4.992-49.253,1-65-12.318-4.266-9.761-6.469-22,0,0.35,7.263.433,17.394-4,20V53C733.472,49.227,734.344,19.781,736,15ZM238,16c4.548,0.227,6.214,2.187,9,3l8-1c5.168,0.878,12.885,2.8,18,4,7.025,1.65,11.97-1.356,15,4h-3c-4.038-2.867-21.662-2.751-26-1a21.507,21.507,0,0,0-1,7c3.457,5.309,1.165,14.394,1,22,4.8,2.237,8.913,5.312,15,6,1.379-3.7,1.678-5.968,6-7,0.631,1.754.193,0.971,1,2-1.568,7.911-.156,16.474,0,25h-2V79c-2.089-3.115-1.73-9.082-4-12-3.451-3.595-8.954-7.175-15-8a25.084,25.084,0,0,0-1,8c2.331,3.6,2.057,12.738,2,18,7.763,5.187,11.276,14.829,21,18v-1c6.819-4.7,9.78-15.828,14-23h2v2c-4.412,4.391-5.113,14.259-5,23a20.9,20.9,0,0,1,6,7h-8c-4.049-3.776-11.713-3.361-16-7-12.619-10.712-12.864-17.939-35-17V85c6.752-.628,8.3-3.312,8-11-2.477-3.977-.822-14.166-1-20-0.292-9.546.017-21.925-1-32C243.394,21,239.148,18.742,238,16Zm382,0c3.245,0.828,1.528-.49,3,2h-1c-2.638,2.4-8.473,4.886-12,6-3.977,23.877-20.311,70.6,20,70,9.813-6.591,16.5-4.418,16-22-4.043-4.125-7.079-10.922-12-14-2.985-1.867-6.722-.568-9-3h2c5.2-3.228,24.91-1.853,31-3v2c-5.228,2.942-5.377,6.456-5,15,2.568,2.639,4.826,7.132,6,11-5.118,3.212-3.149,8.98-9,13-4.019,3.191-6.577,2.256-14,4-26.628,6.258-45.993-10.318-46-40V43c4.337-13.835,7.261-15.36,16-24C611.165,19.08,616.965,18.308,620,16Zm59,2h6v2c-4.041,1.011-7.973,2.667-9,7-2.982,4.781.785,22.6,1,32a28.9,28.9,0,0,0,9,1c2.981-1.96,11.279-1.129,16-1l1-3c1.938-2.976,2.452-30.239,1-33-0.987-1.877-2.857-1.135-4-4h2c5.773,5.1,17.331,3.655,25,7v2c-4.55-.1-4.815-0.355-8,0a24.955,24.955,0,0,1-4,5c-0.235,18.71-2.076,45.037,4,58,1.55,3.307,5.294,3.728,7,7h-5c-3-1.883-21.469-.622-26,1V97c3.431-1.26,5.612-1.453,7-5,5.629-6.011,4.8-20.093,3-28-2.448-.85-6.184-1.039-10-1-2.887,1.458-14.242-1.27-17,0-1.049,1.549-1.031,4.085-1,7,2.638,3.995,2.826,14.317,3,20l9,3-1,1c-2.889,1.2-4.793-1.493-8-2a45.206,45.206,0,0,1-14,4V94c8.369-1.848,9.534-6.205,9-17-5.136-8.141-1.484-39.829-6-51-3.266-1.655-8.738-3.164-11-6h2C663.279,18.714,674.783,21.007,679,18ZM305,27c-0.634,4.193-2.92,4.374-4,7-2.929,7.121.965,18.3-5,22V35a49.253,49.253,0,0,1-6-10h3C295.393,26.571,301.63,26.83,305,27ZM524,67h3c0.843,5.4,5.009,9.135,6,13,0.568,2.214-.559,7.189,0,10h-2V89c-2.1-2.456-2.021-6.3-5-8-3.074-1.923-7.954.637-11,2-1.322,3.856-1.073,10.614-1,16,3.535,5.733,2.947,17.853,11,19,4.817-3.655,14.464-1.859,21-4,1.542-10.575,2.243-21.575-2-31h2c1.618,2.954,4.957,8.026,6,11q0.5,7,1,14c1.256,3.94,4.631,7.852,6,12h-4c-11.665-7.615-48.008,7.447-57,10v-2c3.742-2.171,5.872-6.168,9-9-0.145-6.853-2.622-12.126-4-18-2.979-12.7-2.232-25.318-5-37-2.436-10.282-.629-20.053-9-24-1.624-1.495-2.023-1.552-5-2V35c24.378,0.524,36.328-5.131,56-10-0.05,10.921,5.048,21.459,8,31-1.766.962-1.68,1.257-4,2V57c-3.209-5.56-2.445-12.215-6-17-4.358-5.867-23.953-6.295-31-1-0.8,1.179-.773,1.681-1,4,5.51,6.47,4.183,24.52,6,34l8,1C521.838,74.633,523.523,71.84,524,67Zm45-41h4v2c-3.924,1.745-5.738,2.243-6,8,4.128,5.012,2.058,13.516,4,21,5.746,22.148,4.183,38.724,24,48v2c-7.7-.038-22.459,5.285-29,8v-2a14,14,0,0,0,5-7c1.97-3.573-2.855-13.41-4-18V73c-1.385-4.92-4.548-12.719-6-17-2.281-6.725-.767-14.506-3-20-2.374-.934-6.649-1.758-8-4l3-1C557.6,28.145,564.676,29.023,569,26ZM312,30c6.379,1.272,9.219,4.83,14,7,10.044,4.56,20.835,7.417,30,12,0.972,10.306,7.1,24.588-2,31-6.412,5.372-15.547,3.317-24,2l-1,1c0.631,1.754.193,0.971,1,2,2.746,8.4,12.6,11.26,16,19,3.98,9.051-2.5,21.318,9,23,1.817-4.523,6.082-8.452,8-13,1.627-3.858,1.626-8.26,3-12h2v6c-5.647,7.017-2.289,21.981,0,29,0.612,1.876,1.47.749,0,2v1c-7.47-4.958-7.431-6.79-19-9-6.264-11.321-14.112-44.556-27-47v1c5.677,9.219-4.866,20.758-1,32,1.809,5.259,8.015,6.992,10,13h-2c-5.036-5.929-23.992-8.3-27-13,5.728-2.344,6.945-5.4,11-9C314.165,84.4,318.33,54.8,312,30ZM102,35c3.872-.147,9.715-0.537,12,1,8.919,2.915,15.847,22.094,12,37-3.491,13.525-8.212,29.342-26,29-1.748-1.284-4.222-1.683-7-2-2.69-3.31-23.837-29.437-11-37-0.588,18.939,5.338,30.927,23,31,6.787-11.778,7.966-24.41,6-41l-10-9H94c-2.7,2.979-7.149,8.469-11,10V52c3.49-2.8,4.476-8.3,8-11C94.286,38.483,98.7,37.606,102,35Zm48,5h10c2.164,2.731,5.664,3.548,8,6,7.133,7.485,5.567,30.314,4,43-9.792,6.777-11.56,9.73-27,6-4.354-6.323-8.025-9.379-10-19h2v1c1.656,2.185,1.47,5.442,3,8,2.168,3.624,6.07,6.084,9,9l6-1c8.463-12.224,13.038-45.465-11-45-1.794,2.905-5.876,9.445-9,11V55c2.305-2.854,3.2-7.7,6-10C143.7,42.786,147.513,42.344,150,40Zm178,2c-2.814,8.224-1.518,30.864,1,37a21.512,21.512,0,0,0,7,1c2.24,1.4,3.276.545,6,0,3.421-5.347,5.932-8.683,6-18C340.78,54.355,338.18,47.072,328,42Zm84,9c5.025,0.036,6.422,1.044,10,2,3.013,5.112,4.992,8.283,5,17-5.158,5.286-7.59,12.956-13,18,3.342,7.145,8.443,11.638,12,19,1.754-.631.971-0.193,2-1,1.168-1.7,2.127-5.354,3-7h2v3c-2.726,3.353-3.842,9.506-1,13,1.073,0.752.946,0.6,3,1,1.451-2.358,3.343-4.791,6-6v3c-2.6,3.8.076,9.507,1,13-5.843.555-9.681,2.57-14,4v-2c2.356-2.78,1.25-5.417,1-11l-2-2c-7.288,3.872-7.134,9.008-19,9-4.025-4.791-10.111-4.754-11-13-4.033-8.685,9.655-17.1,11-25-4.886-3.868-10.331-14.357-11-22,1.05-1.438,1.558-3.922,2-6h2c-0.429,10.549,3.809,24.352,12,26,1.261-2.695,2.978-5.971,5-8,0.136-7.816-1.6-11.359-3-17-1.793-.956-4.181-3.414-6-4l-6,1V54l1-1C406.689,52.779,410.248,52.269,412,51Zm208,3h4v2C619.532,55.812,620.2,56.6,620,54ZM134,61h2v9h-2V69c-0.8-1.18-.773-1.681-1-4C133.8,63.821,133.773,63.319,134,61ZM411,93c-1.34,1.9-1.283.874-2,4-3.8,4.655-2.192,12.126-1,17,3.481,2.3,4.517,4.246,10,5,3.293-3.319,6.358-3.713,7-10C420.392,104.021,417.969,95.48,411,93Z"/>
</svg>
